<?xml version="1.0" standalone="no"?>
<!DOCTYPE svg PUBLIC "-//W3C//DTD SVG 20010904//EN"
 "http://www.w3.org/TR/2001/REC-SVG-20010904/DTD/svg10.dtd">
<svg version="1.0" xmlns="http://www.w3.org/2000/svg"
 width="783.000000pt" height="293.000000pt" viewBox="0 0 783.000000 293.000000"
 preserveAspectRatio="xMidYMid meet">
<metadata>
Created by potrace 1.16, written by Peter Selinger 2001-2019
</metadata>
<g transform="translate(0.000000,293.000000) scale(0.100000,-0.100000)"
fill="#000000" stroke="none">
<path d="M3415 2815 c-718 -48 -1258 -135 -1770 -284 -789 -229 -1286 -560
-1390 -925 -25 -87 -17 -239 17 -324 42 -102 88 -170 178 -261 341 -347 979
-606 1895 -771 898 -162 2024 -185 2925 -59 819 114 1455 297 1888 543 423
239 635 528 593 809 -14 90 -79 226 -153 317 -217 264 -678 510 -1278 680
-679 192 -1495 292 -2355 289 -198 -1 -445 -8 -550 -14z m970 -15 c697 -29
1249 -108 1830 -262 363 -96 716 -239 962 -389 360 -221 543 -492 503 -746
-51 -319 -374 -601 -955 -833 -135 -54 -334 -121 -412 -140 l-53 -12 -62 57
c-35 31 -96 73 -137 93 -62 31 -88 38 -151 40 -68 4 -86 0 -170 -33 -52 -20
-114 -39 -137 -42 -39 -5 -45 -3 -78 30 -41 41 -44 65 -15 137 34 87 66 118
168 165 50 24 92 47 92 50 0 12 -101 106 -111 103 -5 -2 -26 -39 -47 -83 -21
-44 -52 -100 -71 -125 -74 -100 -93 -167 -65 -225 33 -69 104 -91 189 -59 192
73 244 80 335 45 90 -34 220 -126 220 -155 0 -15 -85 -39 -315 -90 -368 -81
-870 -149 -1318 -177 -234 -15 -948 -15 -1184 0 -1201 75 -2237 358 -2738 746
-161 125 -268 253 -321 384 -32 80 -43 215 -24 305 39 187 234 407 510 573
379 228 915 404 1590 522 600 105 1306 148 1965 121z"/>
<path d="M6637 2196 c-21 -8 -40 -16 -42 -18 -7 -7 316 -329 325 -323 30 18
39 154 14 213 -44 107 -188 169 -297 128z"/>
<path d="M6506 2154 c-8 -22 57 -96 228 -260 135 -130 167 -150 174 -111 4 19
-359 387 -382 387 -8 0 -17 -7 -20 -16z"/>
<path d="M6463 2055 c-12 -18 -28 -55 -34 -80 l-12 -47 124 -124 c88 -88 131
-124 148 -124 25 0 141 48 141 59 0 3 -78 84 -172 178 l-173 172 -22 -34z"/>
<path d="M1335 1823 c-46 -10 -47 -11 -20 -60 14 -26 25 -62 25 -79 0 -38 -35
-225 -90 -476 -22 -102 -40 -196 -40 -207 0 -18 6 -21 48 -21 60 1 123 15 133
31 4 7 10 33 14 58 8 57 41 219 55 272 9 33 15 40 33 37 24 -3 23 -2 72 -178
60 -217 100 -254 232 -215 49 14 133 67 133 83 0 5 -6 16 -13 26 -12 17 -15
17 -50 0 -35 -17 -37 -17 -58 2 -35 31 -87 151 -119 272 l-11 44 63 58 c88 80
148 211 148 322 0 38 0 38 -40 38 -21 0 -62 -5 -89 -11 -48 -10 -51 -13 -56
-47 -15 -96 -48 -211 -71 -244 -26 -41 -64 -65 -110 -70 -36 -4 -36 -6 0 164
19 92 24 136 18 165 l-8 38 -89 2 c-50 0 -99 -1 -110 -4z"/>
<path d="M3158 1816 c-42 -6 -80 -14 -84 -18 -3 -4 8 -25 25 -46 48 -61 47
-68 -63 -585 -20 -92 -36 -172 -36 -177 0 -6 55 -10 138 -11 75 0 173 -1 217
-2 60 0 91 4 125 20 92 41 150 127 150 223 0 95 -45 162 -126 192 -19 6 -34
15 -34 18 0 4 18 15 39 25 133 59 175 232 79 322 -46 43 -89 53 -225 52 -70
-1 -163 -7 -205 -13z m266 -69 c39 -29 37 -159 -3 -216 -33 -46 -131 -82 -131
-48 0 6 7 46 15 87 42 211 34 190 69 190 18 0 40 -6 50 -13z m-41 -368 c39
-17 57 -60 57 -131 -1 -125 -58 -193 -163 -192 -77 1 -83 9 -68 81 25 118 53
238 57 245 8 12 90 10 117 -3z"/>
<path d="M6283 1777 c-4 -8 -48 -59 -98 -113 -263 -288 -515 -572 -515 -581 0
-10 142 -153 153 -153 12 0 702 621 705 635 3 14 -201 218 -223 223 -7 2 -17
-3 -22 -11z m-135 -353 c16 -11 22 -25 22 -51 0 -48 -72 -123 -118 -123 -33 0
-62 29 -62 64 0 26 45 83 84 107 38 23 45 23 74 3z"/>
<path d="M4171 1508 c-58 -13 -122 -79 -152 -156 -17 -44 -22 -80 -23 -157 -1
-120 5 -144 44 -184 46 -46 105 -51 176 -15 l56 28 18 -24 c28 -37 106 -34
178 5 67 36 77 48 62 74 -9 17 -15 19 -30 11 -69 -37 -69 26 3 372 5 27 -137
64 -152 39 -6 -9 -22 -8 -66 4 -33 8 -62 15 -65 14 -3 -1 -25 -6 -49 -11z
m144 -78 c3 -5 -3 -56 -14 -112 -10 -57 -22 -131 -26 -165 -7 -60 -9 -63 -38
-72 -26 -7 -35 -5 -49 11 -38 43 -13 254 37 326 17 23 78 32 90 12z"/>
<path d="M4943 1501 c-24 -4 -45 -10 -49 -14 -3 -3 4 -19 15 -36 28 -40 27
-86 -10 -264 -16 -76 -29 -154 -29 -174 l0 -36 81 6 c44 4 84 9 90 12 5 4 9
23 9 43 0 32 42 269 56 313 2 9 15 21 29 27 21 10 27 8 45 -18 26 -37 44 -37
95 -1 37 25 40 31 39 73 0 26 -6 53 -13 62 -27 33 -112 14 -156 -34 l-19 -21
-12 33 c-10 32 -12 33 -70 34 -32 1 -78 -1 -101 -5z"/>
<path d="M2276 1339 c-15 -74 -25 -70 162 -67 l167 3 3 48 3 47 -164 0 -164 0
-7 -31z"/>
</g>
</svg>
